<?xml version="1.0" encoding="iso-8859-1"?>
<!-- Generator: Adobe Illustrator 19.0.0, SVG Export Plug-In . SVG Version: 6.00 Build 0)  -->
<!-- Source URL: https://www.shareicon.net/boat-transport-ship-cruise-yacht-ships-transportation-819600 -->
<svg version="1.1" id="Layer_1" xmlns="http://www.w3.org/2000/svg" xmlns:xlink="http://www.w3.org/1999/xlink" x="0px" y="0px"
	 viewBox="0 0 512 512" style="enable-background:new 0 0 512 512;" xml:space="preserve">
<g>
	<g>
		<g>
			<path d="M492.684,267.405h-63.123l-25.246-95.974c-2.23-8.476-9.893-14.385-18.658-14.385h-130.54v-93.75
				c0-10.655-8.638-19.293-19.293-19.293h-75.31c-10.655,0-19.293,8.638-19.293,19.293v93.75H81.959
				c-8.764,0-16.427,5.907-18.659,14.385l-25.247,95.974H19.302c-12.521,0-21.753,11.777-18.721,23.955l40.346,162.006
				c2.141,8.597,9.862,14.63,18.721,14.63h325.45c6.462,0,12.496-3.236,16.071-8.62L508.755,297.37
				C517.253,284.578,508.068,267.405,492.684,267.405z M77.95,267.405l18.882-71.773c10.562,0,263.399,0,273.952,0l18.881,71.773
				H77.95z"/>
			<path d="M156.48,212.226h-22.862c-10.655,0-19.293,8.638-19.293,19.293c0,10.655,8.638,19.293,19.293,19.293h22.862
				c10.655,0,19.293-8.638,19.293-19.293C175.772,220.864,167.134,212.226,156.48,212.226z"/>
			<path d="M245.239,212.226h-22.862c-10.655,0-19.293,8.638-19.293,19.293c0,10.655,8.638,19.293,19.293,19.293h22.862
				c10.655,0,19.293-8.638,19.293-19.293C264.532,220.864,255.894,212.226,245.239,212.226z"/>
			<path d="M333.999,212.226h-22.863c-10.655,0-19.293,8.638-19.293,19.293c0,10.655,8.638,19.293,19.293,19.293h22.863
				c10.655,0,19.293-8.638,19.293-19.293C353.292,220.864,344.654,212.226,333.999,212.226z"/>
		</g>
	</g>
</g>
</svg>
